<?xml version="1.0" encoding="UTF-8"?>
<svg xmlns="http://www.w3.org/2000/svg" viewBox="110 55 1480 470">
<path fill-rule="nonzero" fill="rgb(9.411621%, 25.881958%, 40.783691%)" fill-opacity="1" d="M 186.859375 131.527344 L 186.210938 117.050781 L 186.152344 115.757812 L 184.859375 115.785156 C 175.25 115.992188 165.195312 115.992188 155.472656 115.992188 C 151.503906 115.992188 147.535156 115.9375 143.59375 115.886719 C 139.695312 115.835938 135.824219 115.785156 132.003906 115.785156 L 130.683594 115.785156 L 130.683594 121.054688 L 131.957031 121.101562 C 140.105469 121.394531 140.957031 121.425781 140.957031 128.917969 L 140.957031 174.511719 C 140.957031 184.125 140.371094 184.792969 132.003906 184.792969 L 130.683594 184.792969 L 130.683594 190.136719 L 132.03125 190.109375 L 132.679688 190.097656 C 137.832031 189.996094 142.699219 189.902344 147.359375 189.902344 C 152.222656 189.902344 157.148438 190.003906 162.363281 190.101562 L 162.691406 190.109375 L 164.039062 190.136719 L 164.039062 184.820312 L 162.742188 184.792969 C 156.664062 184.683594 154.199219 184.410156 154.199219 178.71875 L 154.199219 155.09375 L 166.070312 155.09375 C 174.191406 155.09375 174.402344 156.257812 175.578125 162.707031 L 175.691406 163.351562 L 175.890625 164.433594 L 180.585938 164.433594 L 180.476562 163.011719 C 180.265625 160.320312 180.046875 155.554688 180.046875 152.230469 C 180.046875 148.578125 180.257812 143.105469 180.472656 141.179688 L 180.636719 139.710938 L 176.667969 139.710938 L 175.574219 139.714844 L 175.371094 140.785156 C 174.097656 147.386719 173.933594 148.234375 165.636719 148.234375 L 154.199219 148.234375 L 154.199219 121.71875 L 165.636719 121.71875 C 176.84375 121.71875 180.757812 124.257812 181.734375 132.160156 L 181.90625 133.527344 L 183.261719 133.304688 L 185.75 132.894531 L 186.910156 132.703125 Z M 186.859375 131.527344 "/>
<path fill-rule="nonzero" fill="rgb(9.411621%, 25.881958%, 40.783691%)" fill-opacity="1" d="M 247.429688 150.289062 C 246.0625 150.289062 244.414062 150.167969 243.019531 149.972656 L 243.019531 122.144531 C 244.542969 121.910156 246.097656 121.71875 248.183594 121.71875 C 258.921875 121.71875 264.597656 126.625 264.597656 135.902344 C 264.597656 142.539062 260.097656 150.289062 247.429688 150.289062 M 293.710938 184.792969 C 289.011719 184.792969 286.128906 182.667969 282.457031 178.742188 C 279.367188 175.464844 276.074219 170.765625 271.085938 163.652344 C 268.996094 160.671875 266.664062 157.339844 263.949219 153.558594 C 272.84375 150.433594 278.488281 143.417969 278.488281 135.285156 C 278.488281 130.710938 276.59375 115.785156 252.183594 115.785156 C 248.191406 115.785156 245.289062 115.851562 242.730469 115.914062 C 240.894531 115.957031 239.292969 115.992188 237.695312 115.992188 C 233.058594 115.992188 228.605469 115.914062 223.445312 115.824219 L 221.277344 115.785156 L 219.933594 115.761719 L 219.933594 121.078125 L 221.230469 121.101562 C 227.308594 121.210938 229.773438 121.480469 229.773438 127.175781 L 229.773438 179.234375 C 229.773438 181.84375 228.964844 184.835938 222.640625 184.835938 C 222.214844 184.835938 221.777344 184.824219 221.332031 184.796875 L 219.933594 184.71875 L 219.933594 190.136719 L 221.28125 190.109375 C 226.667969 190.003906 231.757812 189.90625 236.9375 189.90625 C 239.253906 189.90625 241.546875 189.953125 243.886719 190.003906 C 246.355469 190.058594 248.875 190.109375 251.539062 190.109375 L 252.859375 190.109375 L 252.859375 184.820312 L 251.5625 184.792969 C 245.484375 184.683594 243.019531 184.410156 243.019531 178.722656 L 243.019531 156.222656 L 250.832031 156.222656 C 252.082031 158.09375 253.320312 159.972656 254.558594 161.855469 C 260.8125 171.351562 267.28125 181.175781 275.453125 189.703125 L 275.863281 190.128906 L 276.457031 190.109375 C 279.417969 190.007812 282.5625 189.90625 285.601562 189.90625 C 286.9375 189.90625 288.273438 189.957031 289.609375 190.007812 C 290.976562 190.058594 292.34375 190.109375 293.710938 190.109375 L 295.035156 190.109375 L 295.035156 184.792969 Z M 293.710938 184.792969 "/>
<path fill-rule="nonzero" fill="rgb(9.411621%, 25.881958%, 40.783691%)" fill-opacity="1" d="M 331.105469 150.382812 C 331.105469 132.035156 340.6875 120.179688 355.519531 120.179688 C 366.28125 120.179688 382.207031 131.410156 382.207031 155.511719 C 382.207031 173.863281 372.621094 185.71875 357.792969 185.71875 C 347.027344 185.71875 331.105469 174.484375 331.105469 150.382812 M 356.816406 114.246094 C 345.460938 114.246094 335.054688 118.597656 327.511719 126.503906 C 320.554688 133.796875 316.5625 143.585938 316.5625 153.359375 C 316.5625 174.113281 334.847656 191.648438 356.492188 191.648438 C 367.847656 191.648438 378.253906 187.296875 385.796875 179.394531 C 392.757812 172.101562 396.746094 162.3125 396.746094 152.539062 C 396.746094 131.78125 378.460938 114.246094 356.816406 114.246094 "/>
<path fill-rule="nonzero" fill="rgb(9.411621%, 25.881958%, 40.783691%)" fill-opacity="1" d="M 458.5 147.214844 C 450.675781 143.457031 443.917969 140.210938 443.917969 132 C 443.917969 124.816406 448.496094 120.179688 455.574219 120.179688 C 462.628906 120.179688 467.121094 123.832031 468.21875 130.46875 L 468.402344 131.574219 L 473.519531 131.574219 L 473.324219 130.082031 L 471.59375 116.9375 L 471.460938 115.941406 L 470.464844 115.800781 C 469.4375 115.652344 468.398438 115.488281 467.359375 115.324219 C 464.019531 114.792969 460.5625 114.246094 457.085938 114.246094 C 442.226562 114.246094 432.621094 122.664062 432.621094 135.695312 C 432.621094 149.355469 442.273438 154.136719 450.789062 158.359375 C 458.21875 162.042969 464.632812 165.222656 464.632812 173.382812 C 464.632812 180.53125 458.957031 185.71875 451.140625 185.71875 C 442.714844 185.71875 437.242188 178.59375 435.558594 171.535156 L 435.3125 170.519531 L 430.253906 170.519531 L 430.472656 172.03125 L 432.636719 187.023438 L 432.742188 187.75 L 433.40625 188.042969 C 438.636719 190.367188 444.703125 191.648438 450.488281 191.648438 C 463.453125 191.648438 477.226562 183.878906 477.226562 169.480469 C 477.226562 156.214844 467.277344 151.433594 458.5 147.214844 "/>
<path fill-rule="nonzero" fill="rgb(9.411621%, 25.881958%, 40.783691%)" fill-opacity="1" d="M 576.285156 112.910156 L 572.953125 112.910156 L 572.722656 113.945312 C 572.472656 115.082031 570.273438 115.785156 566.984375 115.785156 L 517.886719 115.785156 C 515.128906 115.785156 513.117188 115.636719 512.289062 113.710938 L 511.945312 112.910156 L 507.679688 112.910156 L 507.59375 114.136719 L 506.402344 130.464844 L 506.300781 131.882812 L 511.539062 131.882812 L 511.808594 130.914062 L 511.957031 130.375 C 513.628906 124.28125 514.078125 122.644531 522.539062 122.644531 L 535.382812 122.644531 L 535.382812 178.722656 C 535.382812 184.410156 532.914062 184.683594 526.839844 184.796875 L 525.539062 184.820312 L 525.539062 190.136719 L 526.886719 190.109375 C 532.273438 190.003906 537.363281 189.90625 542.542969 189.90625 C 544.863281 189.90625 547.152344 189.953125 549.496094 190.003906 C 551.960938 190.058594 554.480469 190.109375 557.144531 190.109375 L 558.464844 190.109375 L 558.464844 184.820312 L 557.167969 184.796875 C 551.089844 184.683594 548.625 184.410156 548.625 178.722656 L 548.625 122.644531 L 563.738281 122.644531 C 570.644531 122.644531 570.753906 124.710938 571.019531 129.703125 L 571.070312 130.636719 L 571.140625 131.882812 L 576.554688 131.882812 L 576.632812 130.640625 L 577.605469 114.3125 L 577.6875 112.910156 Z M 576.285156 112.910156 "/>
<path fill-rule="nonzero" fill="rgb(9.411621%, 25.881958%, 40.783691%)" fill-opacity="1" d="M 886.488281 147.214844 C 878.667969 143.457031 871.910156 140.210938 871.910156 132 C 871.910156 124.816406 876.484375 120.179688 883.5625 120.179688 C 890.617188 120.179688 895.109375 123.832031 896.207031 130.46875 L 896.390625 131.574219 L 901.511719 131.574219 L 901.3125 130.082031 L 899.582031 116.9375 L 899.453125 115.941406 L 898.457031 115.800781 C 897.425781 115.652344 896.386719 115.488281 895.34375 115.324219 C 892.003906 114.792969 888.550781 114.246094 885.078125 114.246094 C 870.214844 114.246094 860.613281 122.664062 860.613281 135.695312 C 860.613281 149.355469 870.261719 154.136719 878.777344 158.359375 C 886.203125 162.042969 892.621094 165.222656 892.621094 173.382812 C 892.621094 180.53125 886.945312 185.71875 879.128906 185.71875 C 870.699219 185.71875 865.230469 178.59375 863.546875 171.535156 L 863.300781 170.519531 L 858.242188 170.519531 L 858.460938 172.03125 L 860.625 187.023438 L 860.730469 187.75 L 861.398438 188.042969 C 866.625 190.367188 872.691406 191.648438 878.480469 191.648438 C 891.441406 191.648438 905.214844 183.878906 905.214844 169.480469 C 905.214844 156.214844 895.265625 151.433594 886.488281 147.214844 "/>
<path fill-rule="nonzero" fill="rgb(9.411621%, 25.881958%, 40.783691%)" fill-opacity="1" d="M 1014.421875 115.785156 C 1012.570312 115.785156 1010.746094 115.835938 1008.921875 115.890625 C 1007.125 115.941406 1005.324219 115.992188 1003.503906 115.992188 C 999.046875 115.992188 994.507812 115.890625 990.121094 115.792969 L 989.902344 115.785156 L 988.550781 115.753906 L 988.550781 121.0625 L 989.832031 121.101562 L 990.375 121.121094 C 998.828125 121.382812 998.828125 121.382812 998.828125 136.621094 L 998.828125 165.886719 C 998.828125 178.429688 992.648438 184.796875 980.464844 184.796875 C 967.167969 184.796875 960.703125 177.367188 960.703125 162.085938 L 960.703125 127.175781 C 960.703125 121.480469 963.167969 121.210938 969.242188 121.101562 L 970.542969 121.078125 L 970.542969 115.757812 L 969.191406 115.785156 L 967.804688 115.8125 C 962.96875 115.90625 958.394531 115.992188 953.863281 115.992188 C 949.1875 115.992188 944.488281 115.898438 939.511719 115.796875 L 938.964844 115.785156 L 937.613281 115.757812 L 937.613281 121.078125 L 938.914062 121.101562 C 944.992188 121.210938 947.457031 121.480469 947.457031 127.175781 L 947.457031 164.65625 C 947.785156 182.320312 958.226562 191.648438 977.652344 191.648438 C 995.878906 191.648438 1007.203125 181.777344 1007.203125 165.886719 L 1007.203125 135.851562 C 1007.199219 129.929688 1007.199219 126.019531 1008.164062 123.773438 C 1008.867188 122.125 1010.160156 121.101562 1014.421875 121.101562 L 1015.746094 121.101562 L 1015.746094 115.785156 Z M 1014.421875 115.785156 "/>
<path fill-rule="nonzero" fill="rgb(9.411621%, 25.881958%, 40.783691%)" fill-opacity="1" d="M 1108.738281 171.769531 L 1106.355469 171.359375 L 1105.238281 171.167969 L 1104.878906 172.242188 C 1101.691406 181.722656 1097.792969 184.175781 1085.914062 184.175781 C 1070.816406 184.175781 1070.148438 181.105469 1070.148438 174.71875 L 1070.148438 127.171875 C 1070.148438 121.484375 1072.613281 121.210938 1078.6875 121.101562 L 1079.988281 121.078125 L 1079.988281 115.761719 L 1078.640625 115.785156 L 1077.234375 115.8125 C 1072.402344 115.902344 1067.835938 115.992188 1063.308594 115.992188 C 1058.628906 115.992188 1053.933594 115.898438 1048.960938 115.796875 L 1048.414062 115.785156 L 1047.0625 115.757812 L 1047.0625 121.078125 L 1048.363281 121.101562 C 1054.4375 121.210938 1056.90625 121.484375 1056.90625 127.171875 L 1056.90625 179.238281 C 1056.90625 181.84375 1056.09375 184.835938 1049.773438 184.835938 C 1049.34375 184.835938 1048.90625 184.824219 1048.460938 184.796875 L 1047.0625 184.71875 L 1047.0625 190.140625 L 1048.414062 190.109375 C 1057.917969 189.90625 1067.207031 189.90625 1077.042969 189.90625 C 1086.433594 189.90625 1095.300781 189.90625 1104.480469 190.109375 L 1105.53125 190.132812 L 1105.792969 189.113281 L 1109.792969 173.402344 L 1110.148438 172.011719 Z M 1108.738281 171.769531 "/>
<path fill-rule="nonzero" fill="rgb(9.411621%, 25.881958%, 40.783691%)" fill-opacity="1" d="M 1203.582031 171.769531 L 1201.207031 171.359375 L 1200.089844 171.167969 L 1199.726562 172.242188 C 1196.539062 181.722656 1192.640625 184.175781 1180.757812 184.175781 C 1165.664062 184.175781 1164.992188 181.105469 1164.992188 174.71875 L 1164.992188 127.171875 C 1164.992188 121.484375 1167.457031 121.210938 1173.535156 121.101562 L 1174.835938 121.078125 L 1174.835938 115.761719 L 1173.488281 115.785156 L 1172.089844 115.8125 C 1167.253906 115.902344 1162.683594 115.992188 1158.15625 115.992188 C 1153.480469 115.992188 1148.789062 115.898438 1143.816406 115.796875 L 1143.257812 115.785156 L 1141.910156 115.757812 L 1141.910156 121.078125 L 1143.207031 121.101562 C 1149.285156 121.210938 1151.753906 121.484375 1151.753906 127.171875 L 1151.753906 179.238281 C 1151.753906 181.84375 1150.941406 184.835938 1144.621094 184.835938 C 1144.191406 184.835938 1143.753906 184.824219 1143.308594 184.796875 L 1141.910156 184.71875 L 1141.910156 190.140625 L 1143.261719 190.109375 C 1152.765625 189.90625 1162.488281 189.90625 1171.890625 189.90625 C 1181.28125 189.90625 1190.15625 189.90625 1199.332031 190.109375 L 1200.382812 190.132812 L 1200.640625 189.113281 L 1204.640625 173.398438 L 1204.996094 172.011719 Z M 1203.582031 171.769531 "/>
<path fill-rule="nonzero" fill="rgb(9.411621%, 25.881958%, 40.783691%)" fill-opacity="1" d="M 1267.253906 115.785156 L 1265.859375 115.8125 C 1261.023438 115.90625 1256.453125 115.992188 1251.921875 115.992188 C 1247.246094 115.992188 1242.554688 115.898438 1237.582031 115.796875 L 1237.027344 115.785156 L 1235.675781 115.757812 L 1235.675781 121.078125 L 1236.976562 121.101562 C 1243.050781 121.210938 1245.519531 121.480469 1245.519531 127.175781 L 1245.519531 178.71875 C 1245.519531 184.410156 1243.050781 184.683594 1236.976562 184.796875 L 1235.675781 184.820312 L 1235.675781 190.136719 L 1237.023438 190.109375 C 1242.410156 190.003906 1247.5 189.90625 1252.679688 189.90625 C 1254.996094 189.90625 1257.289062 189.953125 1259.632812 190.003906 C 1262.097656 190.058594 1264.617188 190.109375 1267.277344 190.109375 L 1268.601562 190.109375 L 1268.601562 184.820312 L 1267.304688 184.796875 C 1261.226562 184.683594 1258.761719 184.410156 1258.761719 178.71875 L 1258.761719 127.175781 C 1258.761719 121.480469 1261.226562 121.210938 1267.304688 121.101562 L 1268.601562 121.078125 L 1268.601562 115.757812 Z M 1267.253906 115.785156 "/>
<path fill-rule="nonzero" fill="rgb(9.411621%, 25.881958%, 40.783691%)" fill-opacity="1" d="M 1376.359375 115.785156 L 1376.207031 115.792969 C 1372.972656 115.890625 1369.628906 115.992188 1366.34375 115.992188 C 1362.097656 115.992188 1357.785156 115.886719 1353.617188 115.785156 L 1352.261719 115.753906 L 1352.261719 121.035156 L 1353.515625 121.101562 C 1353.871094 121.121094 1354.234375 121.132812 1354.597656 121.148438 C 1358.777344 121.316406 1360.476562 121.667969 1360.476562 124.503906 C 1360.476562 126.816406 1359.203125 130.265625 1358.179688 133.035156 C 1357.8125 134.03125 1357.464844 134.96875 1357.195312 135.796875 C 1355.789062 139.917969 1354.050781 144.109375 1352.363281 148.164062 C 1351.347656 150.609375 1350.296875 153.140625 1349.320312 155.652344 L 1342.328125 172.953125 L 1329.179688 140.84375 C 1328.9375 140.242188 1328.503906 139.238281 1327.96875 137.996094 C 1326.148438 133.773438 1322.355469 124.980469 1322.355469 122.550781 C 1322.355469 121.613281 1323.457031 121.4375 1323.933594 121.40625 C 1324.988281 121.265625 1325.972656 121.222656 1327.011719 121.179688 C 1327.523438 121.15625 1328.046875 121.132812 1328.578125 121.101562 L 1329.816406 121.023438 L 1329.816406 115.785156 L 1328.492188 115.785156 C 1326.214844 115.785156 1323.90625 115.835938 1321.597656 115.890625 C 1319.308594 115.941406 1317.023438 115.992188 1314.757812 115.992188 C 1309.765625 115.992188 1304.683594 115.890625 1299.773438 115.789062 L 1299.539062 115.785156 L 1298.191406 115.757812 L 1298.191406 121.101562 L 1299.511719 121.101562 C 1305.992188 121.101562 1307.292969 122.574219 1309.640625 128.386719 C 1311.191406 132.550781 1313.027344 136.789062 1314.804688 140.886719 C 1315.882812 143.375 1316.957031 145.851562 1317.96875 148.316406 L 1335.925781 190.839844 L 1336.269531 191.648438 L 1342.027344 191.648438 L 1342.367188 190.835938 L 1362.15625 143.703125 L 1362.367188 143.203125 C 1369.179688 126.777344 1370.164062 124.691406 1370.300781 124.441406 C 1371.753906 122.082031 1373.527344 121.101562 1376.398438 121.101562 L 1377.722656 121.101562 L 1377.722656 115.746094 Z M 1376.359375 115.785156 "/>
<path fill-rule="nonzero" fill="rgb(9.411621%, 25.881958%, 40.783691%)" fill-opacity="1" d="M 1414.726562 156.351562 L 1423.523438 131.039062 L 1433.21875 156.351562 Z M 1464.125 184.792969 C 1460.582031 184.792969 1457.992188 183.988281 1456.835938 182.527344 C 1455.609375 180.917969 1453.441406 174.929688 1452.003906 170.96875 C 1451.582031 169.796875 1451.195312 168.730469 1450.871094 167.878906 L 1430.214844 113.761719 L 1429.890625 112.910156 L 1426.417969 112.910156 L 1426.027344 113.519531 C 1424.722656 115.554688 1422.484375 116.570312 1420.324219 117.546875 L 1419.300781 118.007812 L 1419.589844 119.09375 C 1419.761719 119.746094 1419.761719 120.449219 1419.761719 121.421875 C 1419.761719 124.230469 1418.410156 127.921875 1417.605469 130.125 L 1403.738281 166.855469 C 1403.375 167.832031 1403.019531 168.820312 1402.667969 169.808594 C 1401.652344 172.636719 1400.605469 175.5625 1399.339844 178.265625 C 1396.839844 183.585938 1396.046875 184.132812 1389.90625 184.800781 L 1388.726562 184.929688 L 1388.726562 190.144531 L 1390.082031 190.109375 C 1394.320312 190.003906 1398.816406 189.90625 1403.132812 189.90625 C 1405.234375 189.90625 1407.359375 189.957031 1409.484375 190.007812 C 1411.628906 190.058594 1413.777344 190.109375 1415.894531 190.109375 L 1417.21875 190.109375 L 1417.21875 184.792969 L 1413.410156 184.792969 L 1412.652344 184.753906 C 1408.667969 184.566406 1407.378906 184.253906 1407.378906 181.289062 C 1407.378906 178.242188 1408.960938 173.382812 1410.230469 169.480469 L 1412.308594 163.203125 L 1435.839844 163.203125 L 1440.933594 177.222656 C 1441.746094 179.320312 1442.476562 181.929688 1442.476562 182.726562 C 1442.476562 183.238281 1442.476562 184.792969 1437.847656 184.792969 L 1434.578125 184.792969 L 1434.578125 190.136719 L 1435.925781 190.109375 C 1441.742188 189.996094 1446.59375 189.90625 1451.6875 189.90625 C 1453.734375 189.90625 1455.804688 189.957031 1457.878906 190.007812 C 1459.972656 190.058594 1462.0625 190.109375 1464.125 190.109375 L 1465.453125 190.109375 L 1465.453125 184.792969 Z M 1464.125 184.792969 "/>
<path fill-rule="nonzero" fill="rgb(9.411621%, 25.881958%, 40.783691%)" fill-opacity="1" d="M 1567.394531 115.785156 C 1565.273438 115.785156 1563.183594 115.835938 1561.09375 115.886719 C 1559.019531 115.941406 1556.949219 115.992188 1554.847656 115.992188 C 1549.855469 115.992188 1544.769531 115.886719 1539.847656 115.785156 L 1538.496094 115.757812 L 1538.496094 121.089844 L 1539.804688 121.101562 C 1550.035156 121.199219 1551.582031 123.691406 1551.582031 132.207031 L 1551.582031 169.8125 C 1549.359375 167.535156 1546.945312 165.078125 1544.421875 162.507812 C 1538.988281 156.976562 1532.832031 150.710938 1527.152344 144.742188 C 1523.085938 140.480469 1519.226562 136.5625 1515.824219 133.105469 C 1508.863281 126.039062 1503.363281 120.460938 1500.453125 116.34375 L 1500.054688 115.785156 L 1499.371094 115.785156 C 1497.898438 115.785156 1496.394531 115.835938 1494.890625 115.890625 C 1493.417969 115.941406 1491.949219 115.992188 1490.503906 115.992188 C 1487.316406 115.992188 1484.265625 115.898438 1481.03125 115.796875 L 1480.597656 115.785156 L 1479.234375 115.746094 L 1479.234375 121.101562 L 1480.554688 121.101562 C 1489.398438 121.101562 1492.535156 123.898438 1492.535156 131.792969 L 1492.535156 173.074219 C 1492.535156 184.796875 1488.894531 184.796875 1482.285156 184.796875 L 1480.960938 184.796875 L 1480.960938 190.140625 L 1482.3125 190.109375 C 1486.976562 190.007812 1491.921875 189.90625 1496.667969 189.90625 C 1499.039062 189.90625 1501.4375 189.957031 1503.835938 190.007812 C 1506.25 190.058594 1508.664062 190.109375 1511.050781 190.109375 L 1512.375 190.109375 L 1512.375 184.796875 L 1511.050781 184.796875 C 1500.691406 184.796875 1499.503906 183.179688 1499.503906 169.070312 L 1499.503906 134.054688 L 1553.789062 190.625 L 1554.179688 191.035156 L 1558.554688 191.035156 L 1558.554688 130.355469 C 1558.554688 121.101562 1561.503906 121.101562 1567.394531 121.101562 L 1568.714844 121.101562 L 1568.714844 115.785156 Z M 1567.394531 115.785156 "/>
<path fill-rule="nonzero" fill="rgb(9.411621%, 25.881958%, 40.783691%)" fill-opacity="1" d="M 661.867188 158.234375 C 661.503906 156.429688 661.503906 154.546875 661.503906 152.714844 C 661.503906 136.835938 672.21875 118.382812 686.035156 118.382812 C 689.339844 118.382812 692.839844 120.816406 692.839844 123.121094 C 692.839844 123.640625 692.730469 124.011719 692.140625 124.601562 L 675.96875 141.632812 C 670.957031 146.8125 666.335938 152.253906 661.867188 158.234375 M 788.257812 113.230469 C 784.855469 113.230469 781.980469 115.867188 781.980469 118.988281 C 781.980469 121.980469 783.550781 124.050781 784.941406 125.875 C 785.9375 127.1875 786.800781 128.324219 786.800781 129.484375 C 786.800781 132.40625 784.835938 135.429688 781.542969 135.429688 C 777.015625 135.429688 773.621094 131.492188 769.6875 126.933594 C 764.429688 120.832031 758.46875 113.921875 747.8125 113.921875 C 734.613281 113.921875 716.933594 127.824219 716.933594 142.046875 C 716.933594 152.378906 724.636719 155.722656 728.367188 155.722656 C 732.800781 155.722656 737.566406 153.542969 737.566406 148.757812 C 737.566406 143.738281 734.554688 142.910156 731.894531 142.175781 C 728.972656 141.371094 726.210938 140.613281 726.210938 134.820312 C 726.210938 128.679688 732.246094 124.402344 737.660156 124.402344 C 742.421875 124.402344 751.015625 128.042969 752.035156 131.113281 C 751.464844 142.632812 749.492188 159.246094 739.105469 170.90625 C 730.9375 180.289062 715.597656 190.316406 697.046875 190.316406 C 689.246094 190.316406 678.085938 187.148438 672.023438 180.191406 C 669.355469 177.207031 665.808594 172.722656 665.808594 168.203125 C 665.808594 162.746094 668.164062 159.4375 672.035156 154.648438 L 680.257812 144.875 L 686.960938 138.175781 L 722.585938 104.277344 C 733.214844 94.027344 738.601562 86.242188 738.601562 81.136719 C 738.601562 75.992188 736.066406 72.796875 731.980469 72.796875 C 728.265625 72.796875 724.503906 75.128906 724.503906 79.585938 C 724.503906 80.351562 724.8125 81.527344 725.171875 82.886719 C 725.582031 84.457031 726.054688 86.242188 726.054688 87.503906 C 726.054688 92.710938 718.097656 100.484375 712.289062 106.160156 C 710.144531 108.257812 708.261719 110.097656 706.980469 111.582031 C 703.613281 108.550781 699.199219 107.898438 696.015625 107.898438 C 672.832031 107.898438 650.15625 137.5 650.15625 159.597656 C 650.15625 185.886719 668.167969 204.242188 693.949219 204.242188 C 718.207031 204.242188 736.792969 193.140625 749.195312 171.242188 C 755.808594 159.375 757.253906 146.832031 757.65625 135.945312 C 761.804688 140.359375 766.644531 144.707031 772.25 144.707031 C 782.757812 144.707031 796.082031 134.382812 796.082031 122.773438 C 796.082031 118.03125 793.390625 113.230469 788.257812 113.230469 "/>
<path fill-rule="nonzero" fill="rgb(9.411621%, 25.881958%, 40.783691%)" fill-opacity="1" d="M 339.332031 404.03125 C 345.09375 394.535156 348.398438 380.402344 349.425781 360.832031 L 355.273438 251.265625 L 317.96875 251.265625 L 312.753906 356.222656 C 311.714844 378.023438 309.164062 382.070312 308.574219 382.769531 C 307.894531 383.621094 306.105469 384.285156 303.664062 384.589844 L 299.296875 385.136719 L 299.09375 422.035156 L 304.617188 421.507812 C 321.53125 419.890625 333.207031 414.019531 339.332031 404.03125 "/>
<path fill-rule="nonzero" fill="rgb(9.411621%, 25.881958%, 40.783691%)" fill-opacity="1" d="M 416.957031 247.164062 L 380.269531 247.164062 L 380.269531 424.3125 L 416.957031 424.3125 Z M 416.957031 247.164062 "/>
<path fill-rule="nonzero" fill="rgb(9.411621%, 25.881958%, 40.783691%)" fill-opacity="1" d="M 488.5 376.980469 C 488.105469 376.015625 487.097656 372.355469 486.222656 359.21875 L 479.332031 252.289062 L 442.027344 252.289062 L 449.269531 361.195312 C 449.980469 371.816406 451.144531 379.742188 452.828125 385.425781 C 456.300781 397.140625 462.457031 405.789062 471.125 411.125 C 471.496094 411.351562 471.882812 411.574219 472.277344 411.792969 L 456.035156 411.792969 L 454.527344 413.769531 C 450.078125 419.605469 445.75 424.316406 441.617188 427.808594 C 430.613281 437.320312 413.992188 446.125 392.238281 453.976562 C 368.765625 462.371094 340.585938 467.746094 308.484375 469.953125 L 303.8125 470.273438 L 303.8125 504.621094 L 309.011719 504.429688 C 335.78125 503.445312 358.785156 500.636719 377.394531 496.085938 C 413.164062 487.339844 442.652344 473.027344 465.039062 453.542969 C 474.644531 445.160156 483.359375 433.582031 490.933594 419.136719 L 491.726562 417.625 C 492.117188 417.6875 492.515625 417.75 492.914062 417.8125 L 498.683594 418.691406 L 498.683594 381.054688 L 494.148438 380.617188 C 490.210938 380.242188 489.117188 378.652344 488.5 376.980469 "/>
<path fill-rule="nonzero" fill="rgb(9.411621%, 25.881958%, 40.783691%)" fill-opacity="1" d="M 218.863281 287.511719 L 287.773438 287.511719 L 287.773438 250.386719 L 218.863281 250.386719 Z M 218.863281 287.511719 "/>
<path fill-rule="nonzero" fill="rgb(9.411621%, 25.881958%, 40.783691%)" fill-opacity="1" d="M 218.863281 388.136719 L 287.773438 388.136719 L 287.773438 351.007812 L 218.863281 351.007812 Z M 218.863281 388.136719 "/>
<path fill-rule="nonzero" fill="rgb(9.411621%, 25.881958%, 40.783691%)" fill-opacity="1" d="M 218.863281 500.769531 L 287.773438 500.769531 L 287.773438 464.082031 L 218.863281 464.082031 Z M 218.863281 500.769531 "/>
<path fill-rule="nonzero" fill="rgb(9.411621%, 25.881958%, 40.783691%)" fill-opacity="1" d="M 950.359375 457.085938 C 950.359375 461.402344 948.851562 464.234375 945.613281 466.179688 C 945.554688 466.207031 944.101562 466.894531 938.339844 467.011719 L 901 467.351562 L 901 504.53125 L 936.292969 504.871094 C 936.601562 504.871094 936.910156 504.875 937.21875 504.875 C 949.273438 504.875 959.246094 502.917969 966.886719 499.046875 C 981.042969 491.800781 988.21875 477.386719 988.21875 456.207031 L 988.21875 246.140625 L 950.660156 246.140625 Z M 950.359375 457.085938 "/>
<path fill-rule="nonzero" fill="rgb(9.411621%, 25.881958%, 40.783691%)" fill-opacity="1" d="M 722.90625 428.65625 C 722.242188 439.425781 721.0625 448.234375 719.402344 454.785156 C 717.488281 462.035156 714.332031 466.625 710.015625 468.421875 L 706.929688 469.707031 L 706.929688 507.007812 L 713.265625 505.28125 C 729.515625 500.847656 741.058594 493.144531 747.597656 482.363281 C 754.03125 471.597656 757.855469 453.886719 759.28125 428.230469 L 763.984375 347.203125 L 727.726562 347.203125 Z M 722.90625 428.65625 "/>
<path fill-rule="nonzero" fill="rgb(9.411621%, 25.881958%, 40.783691%)" fill-opacity="1" d="M 938.566406 256.976562 L 901 256.976562 L 901 461.515625 L 938.566406 461.515625 Z M 938.566406 256.976562 "/>
<path fill-rule="nonzero" fill="rgb(9.411621%, 25.881958%, 40.783691%)" fill-opacity="1" d="M 881.308594 465.296875 C 880.238281 464.015625 878.582031 461.394531 876.816406 456.308594 C 875.191406 451.160156 873.9375 441.414062 873.085938 427.34375 L 868.261719 347.203125 L 832.164062 347.203125 L 837.148438 436.308594 C 837.859375 447.648438 838.957031 456.183594 840.511719 462.40625 C 844.304688 477.574219 851.40625 489.027344 861.652344 496.46875 C 865.5625 499.257812 872.421875 502.082031 882.621094 505.101562 L 889.0625 507.007812 L 889.0625 469.953125 L 886.289062 468.566406 C 882.988281 466.914062 881.714844 465.765625 881.308594 465.296875 "/>
<path fill-rule="nonzero" fill="rgb(9.411621%, 25.881958%, 40.783691%)" fill-opacity="1" d="M 855.238281 250.09375 C 854.988281 251.445312 854.710938 252.125 854.570312 252.40625 C 854.082031 252.558594 852.679688 252.875 849.480469 252.875 L 707.8125 252.875 L 707.8125 290.003906 L 778.113281 290.003906 L 778.113281 305.75 L 707.8125 305.75 L 707.8125 342.878906 L 778.113281 342.878906 L 778.113281 504.136719 L 815.242188 504.136719 L 815.242188 342.878906 L 886.425781 342.878906 L 886.425781 305.75 L 815.242188 305.75 L 815.242188 289.984375 L 852.703125 289.855469 C 868.132812 289.855469 879.546875 283.640625 886.601562 271.441406 C 889.457031 266.632812 891.214844 260.09375 891.96875 251.445312 L 892.449219 245.992188 L 856 245.992188 Z M 855.238281 250.09375 "/>
<path fill-rule="nonzero" fill="rgb(9.411621%, 25.881958%, 40.783691%)" fill-opacity="1" d="M 1397.574219 421.195312 C 1410.164062 403.648438 1422.289062 380.121094 1433.613281 351.265625 L 1451.113281 306.699219 L 1480.535156 306.699219 L 1480.535156 269.132812 L 1358.238281 269.132812 L 1358.238281 245.699219 L 1321.402344 245.699219 L 1321.402344 269.132812 L 1200.128906 269.132812 L 1200.128906 306.699219 L 1409.472656 306.699219 L 1392.332031 351.007812 C 1380.796875 381.109375 1364.054688 405.9375 1342.535156 424.871094 C 1330.65625 413.535156 1320.238281 401.316406 1311.535156 388.519531 C 1303.21875 376.1875 1295.355469 362.355469 1288.175781 347.417969 L 1270.992188 311.460938 L 1228.710938 311.460938 L 1255.289062 365.296875 C 1263.261719 381.238281 1271.597656 395.757812 1280.0625 408.457031 C 1287.488281 419.597656 1297.640625 432.105469 1310.285156 445.707031 C 1291.757812 454.261719 1273.96875 460.015625 1257.332031 462.832031 C 1242.058594 465.410156 1227.851562 466.71875 1215.101562 466.71875 L 1199.25 466.71875 L 1199.25 503.859375 L 1204.277344 503.84375 C 1238.964844 503.746094 1270.042969 499.683594 1296.625 491.78125 C 1310.257812 487.804688 1325.535156 481.15625 1342.074219 472.003906 C 1356.558594 481.109375 1369.824219 487.871094 1381.554688 492.125 C 1403.480469 500 1426.667969 503.992188 1450.476562 503.992188 C 1454.015625 503.992188 1458.484375 503.941406 1463.804688 503.84375 L 1480.535156 503.84375 L 1480.535156 466.746094 L 1475.265625 467.015625 C 1467.746094 467.402344 1461.769531 467.597656 1457.507812 467.597656 C 1426 467.597656 1397.992188 460.933594 1374.136719 447.777344 C 1383.628906 438.589844 1391.5 429.671875 1397.574219 421.195312 "/>
</svg>
